<svg width="120" height="78" viewBox="0 0 120 78" fill="none" xmlns="http://www.w3.org/2000/svg">
<path d="M19.1548 35.6378C19.098 35.0649 18.8542 34.6198 18.4233 34.3026C17.9924 33.9853 17.4077 33.8267 16.669 33.8267C16.1671 33.8267 15.7434 33.8977 15.3977 34.0398C15.0521 34.1771 14.7869 34.3688 14.6023 34.6151C14.4223 34.8613 14.3324 35.1406 14.3324 35.4531C14.3229 35.7135 14.3774 35.9408 14.4957 36.1349C14.6188 36.3291 14.7869 36.4972 15 36.6392C15.2131 36.7765 15.4593 36.8973 15.7386 37.0014C16.018 37.1009 16.3163 37.1861 16.6335 37.2571L17.9403 37.5696C18.5748 37.7116 19.1572 37.901 19.6875 38.1378C20.2178 38.3745 20.6771 38.6657 21.0653 39.0114C21.4536 39.357 21.7543 39.7642 21.9673 40.233C22.1851 40.7017 22.2964 41.2391 22.3011 41.8452C22.2964 42.7353 22.0691 43.5071 21.6193 44.1605C21.1742 44.8092 20.5303 45.3134 19.6875 45.6733C18.8494 46.0284 17.8385 46.206 16.6548 46.206C15.4806 46.206 14.4579 46.026 13.5866 45.6662C12.7202 45.3063 12.0431 44.7737 11.5554 44.0682C11.0724 43.358 10.8191 42.4796 10.7955 41.4332H13.7713C13.8045 41.9209 13.9441 42.3281 14.1903 42.6548C14.4413 42.9768 14.7751 43.2206 15.1918 43.3864C15.6132 43.5473 16.089 43.6278 16.6193 43.6278C17.1402 43.6278 17.5923 43.5521 17.9759 43.4006C18.3641 43.2491 18.6648 43.0384 18.8778 42.7685C19.0909 42.4986 19.1974 42.1884 19.1974 41.8381C19.1974 41.5114 19.1004 41.2367 18.9062 41.0142C18.7169 40.7917 18.4375 40.6023 18.0682 40.446C17.7036 40.2898 17.2562 40.1477 16.7259 40.0199L15.142 39.6222C13.9157 39.3239 12.9474 38.8575 12.2372 38.223C11.527 37.5885 11.1742 36.7339 11.179 35.6591C11.1742 34.7784 11.4086 34.009 11.8821 33.3509C12.3603 32.6927 13.0161 32.179 13.8494 31.8097C14.6828 31.4403 15.6297 31.2557 16.6903 31.2557C17.7699 31.2557 18.7121 31.4403 19.517 31.8097C20.3267 32.179 20.9564 32.6927 21.4062 33.3509C21.8561 34.009 22.0881 34.7713 22.1023 35.6378H19.1548Z" fill="#009689"/>
<path d="M28.1134 40.0312C28.5978 40.2865 28.9519 40.5365 29.1759 40.7812C29.4051 41.026 29.5743 41.2786 29.6837 41.5391C29.7983 41.7943 29.8556 42.0885 29.8556 42.4219C29.8556 42.7188 29.8035 43.1068 29.6993 43.5859L29.504 44.4766C29.3999 44.9609 29.3478 45.3203 29.3478 45.5547C29.3478 45.8724 29.4702 46.1406 29.715 46.3594C29.965 46.5833 30.4754 46.6953 31.2462 46.6953H32.4572V47.9062H31.2306C29.8035 47.9062 28.8842 47.6771 28.4728 47.2188C28.0613 46.7604 27.8556 46.2422 27.8556 45.6641C27.8556 45.3568 27.8947 45.026 27.9728 44.6719L28.1134 44.0469L28.2462 43.3672L28.34 42.9531C28.3764 42.7604 28.3947 42.5729 28.3947 42.3906C28.3947 41.9062 28.2306 41.4922 27.9025 41.1484C27.5795 40.8047 27.0066 40.6328 26.1837 40.6328H25.4884V39.4219H26.1837C26.9962 39.4219 27.5665 39.2526 27.8947 38.9141C28.228 38.5755 28.3947 38.1536 28.3947 37.6484C28.3947 37.4609 28.3764 37.2786 28.34 37.1016L28.2462 36.6953L28.1134 36.0156L27.9728 35.3906C27.8947 35.0312 27.8556 34.6979 27.8556 34.3906C27.8556 33.8177 28.0613 33.3021 28.4728 32.8438C28.8842 32.3802 29.8035 32.1484 31.2306 32.1484H32.4572V33.3672H31.2462C30.4806 33.3672 29.9728 33.4792 29.7228 33.7031C29.4728 33.9219 29.3478 34.1927 29.3478 34.5156C29.3478 34.7448 29.3999 35.1016 29.504 35.5859L29.6993 36.4766C29.8035 36.9557 29.8556 37.3438 29.8556 37.6406C29.8556 37.974 29.7983 38.2708 29.6837 38.5312C29.5743 38.7865 29.4051 39.0365 29.1759 39.2812C28.9519 39.526 28.5978 39.776 28.1134 40.0312Z" fill="#00BBA7"/>
<path d="M39.643 46.2131C38.6842 46.2131 37.8586 45.9867 37.1661 45.5339C36.4736 45.0811 35.941 44.4575 35.5681 43.6629C35.1952 42.8683 35.0088 41.9606 35.0088 40.9396C35.0088 39.9009 35.1997 38.9843 35.5814 38.1897C35.9676 37.3907 36.5047 36.767 37.1927 36.3187C37.8852 35.8659 38.6931 35.6396 39.6164 35.6396C40.3355 35.6396 40.9836 35.7727 41.5606 36.0391C42.1377 36.3054 42.6104 36.6783 42.9789 37.1577C43.3473 37.6371 43.5759 38.1964 43.6647 38.8356H42.0933C41.9735 38.3695 41.7071 37.9567 41.2943 37.5971C40.8859 37.2331 40.3355 37.0511 39.643 37.0511C39.0305 37.0511 38.4933 37.2109 38.0317 37.5305C37.5745 37.8457 37.2172 38.2918 36.9597 38.8689C36.7067 39.4415 36.5802 40.114 36.5802 40.8864C36.5802 41.6765 36.7045 42.3645 36.953 42.9505C37.2061 43.5364 37.5612 43.9914 38.0184 44.3154C38.48 44.6395 39.0216 44.8015 39.643 44.8015C40.0514 44.8015 40.4221 44.7305 40.755 44.5884C41.0879 44.4464 41.3698 44.2422 41.6006 43.9759C41.8314 43.7095 41.9957 43.3899 42.0933 43.017H43.6647C43.5759 43.6207 43.3562 44.1645 43.0055 44.6483C42.6593 45.1278 42.1998 45.5095 41.6272 45.7936C41.059 46.0732 40.3976 46.2131 39.643 46.2131ZM48.4714 46.2397C47.8233 46.2397 47.2352 46.1176 46.7069 45.8735C46.1787 45.6249 45.7592 45.2676 45.4485 44.8015C45.1378 44.331 44.9824 43.7628 44.9824 43.0969C44.9824 42.511 45.0978 42.036 45.3287 41.6721C45.5595 41.3036 45.868 41.0151 46.2542 40.8065C46.6404 40.5978 47.0665 40.4425 47.5326 40.3404C48.0031 40.2338 48.4759 40.1495 48.9508 40.0874C49.5723 40.0075 50.0761 39.9475 50.4623 39.9076C50.8529 39.8632 51.137 39.79 51.3145 39.6879C51.4965 39.5858 51.5875 39.4082 51.5875 39.1552V39.1019C51.5875 38.445 51.4078 37.9345 51.0482 37.5705C50.6931 37.2065 50.1538 37.0245 49.4302 37.0245C48.68 37.0245 48.0919 37.1887 47.6658 37.5172C47.2396 37.8457 46.94 38.1964 46.7669 38.5692L45.2754 38.0366C45.5417 37.4151 45.8968 36.9313 46.3407 36.585C46.7891 36.2344 47.2773 35.9902 47.8056 35.8526C48.3383 35.7106 48.862 35.6396 49.377 35.6396C49.7054 35.6396 50.0827 35.6795 50.5089 35.7594C50.9395 35.8349 51.3545 35.9925 51.754 36.2322C52.1579 36.4719 52.4931 36.8336 52.7594 37.3175C53.0258 37.8013 53.1589 38.4494 53.1589 39.2617V46H51.5875V44.6151H51.5076C51.4011 44.837 51.2235 45.0745 50.975 45.3275C50.7264 45.5805 50.3957 45.7958 49.9829 45.9734C49.5701 46.1509 49.0662 46.2397 48.4714 46.2397ZM48.7111 44.8281C49.3326 44.8281 49.8564 44.7061 50.2825 44.4619C50.7131 44.2178 51.0371 43.9026 51.2546 43.5164C51.4766 43.1302 51.5875 42.7241 51.5875 42.2979V40.8597C51.521 40.9396 51.3745 41.0129 51.1481 41.0795C50.9261 41.1416 50.6687 41.1971 50.3757 41.2459C50.0872 41.2903 49.8053 41.3303 49.5301 41.3658C49.2593 41.3968 49.0396 41.4235 48.8709 41.4457C48.4625 41.4989 48.0808 41.5855 47.7257 41.7053C47.375 41.8208 47.0909 41.9961 46.8734 42.2314C46.6603 42.4622 46.5538 42.7773 46.5538 43.1768C46.5538 43.7228 46.7558 44.1357 47.1597 44.4153C47.5681 44.6905 48.0852 44.8281 48.7111 44.8281ZM57.0984 32.3636V46H55.527V32.3636H57.0984ZM63.7645 46.2131C62.779 46.2131 61.929 45.9956 61.2143 45.5605C60.5041 45.1211 59.9559 44.5085 59.5697 43.7228C59.1879 42.9327 58.9971 42.0138 58.9971 40.9663C58.9971 39.9187 59.1879 38.9954 59.5697 38.1964C59.9559 37.3929 60.493 36.767 61.181 36.3187C61.8735 35.8659 62.6814 35.6396 63.6047 35.6396C64.1373 35.6396 64.6634 35.7283 65.1827 35.9059C65.7021 36.0835 66.1748 36.372 66.6009 36.7715C67.0271 37.1665 67.3667 37.6903 67.6197 38.3429C67.8727 38.9954 67.9992 39.7988 67.9992 40.7532V41.419H60.1157V40.0607H66.4012C66.4012 39.4837 66.2858 38.9687 66.055 38.516C65.8286 38.0632 65.5045 37.7059 65.0828 37.444C64.6656 37.1821 64.1729 37.0511 63.6047 37.0511C62.9788 37.0511 62.4372 37.2065 61.98 37.5172C61.5273 37.8235 61.1788 38.223 60.9347 38.7157C60.6905 39.2085 60.5685 39.7367 60.5685 40.3004V41.206C60.5685 41.9783 60.7016 42.6331 60.968 43.1702C61.2387 43.7029 61.6138 44.109 62.0932 44.3887C62.5726 44.6639 63.1297 44.8015 63.7645 44.8015C64.1773 44.8015 64.5502 44.7438 64.8831 44.6284C65.2204 44.5085 65.5112 44.331 65.7553 44.0957C65.9995 43.856 66.1881 43.5586 66.3213 43.2035L67.8394 43.6296C67.6796 44.1445 67.411 44.5973 67.0337 44.9879C66.6564 45.3741 66.1903 45.676 65.6355 45.8935C65.0806 46.1065 64.4569 46.2131 63.7645 46.2131Z" fill="#314158"/>
<path d="M75.2081 40.0312C74.7238 39.776 74.367 39.526 74.1378 39.2812C73.9139 39.0365 73.7472 38.7865 73.6378 38.5312C73.5284 38.2708 73.4738 37.974 73.4738 37.6406C73.4738 37.3438 73.5232 36.9557 73.6222 36.4766L73.8175 35.5859C73.9217 35.1016 73.9738 34.7422 73.9738 34.5078C73.9738 34.1901 73.8488 33.9219 73.5988 33.7031C73.354 33.4792 72.8462 33.3672 72.0753 33.3672H70.8644V32.1484H72.0909C73.518 32.1484 74.4373 32.3802 74.8488 32.8438C75.2654 33.3021 75.4738 33.8177 75.4738 34.3906C75.4738 34.7031 75.4321 35.0365 75.3488 35.3906L75.2081 36.0156L75.0753 36.6953L74.9816 37.1016C74.9451 37.2995 74.9269 37.4896 74.9269 37.6719C74.9269 38.151 75.0883 38.5625 75.4113 38.9062C75.7394 39.25 76.3149 39.4219 77.1378 39.4219H77.8331V40.6328H77.1378C76.3253 40.6328 75.7524 40.8047 75.4191 41.1484C75.0909 41.487 74.9269 41.9089 74.9269 42.4141C74.9269 42.5964 74.9451 42.776 74.9816 42.9531L75.0753 43.3672L75.2081 44.0469L75.3488 44.6719C75.4321 45.0312 75.4738 45.3646 75.4738 45.6719C75.4738 46.25 75.2654 46.7656 74.8488 47.2188C74.4373 47.6771 73.518 47.9062 72.0909 47.9062H70.8644V46.6953H72.0753C72.8462 46.6953 73.354 46.5833 73.5988 46.3594C73.8488 46.1406 73.9738 45.8698 73.9738 45.5469C73.9738 45.3177 73.9217 44.9609 73.8175 44.4766L73.6222 43.5859C73.5232 43.1068 73.4738 42.7188 73.4738 42.4219C73.4738 42.0885 73.5284 41.7943 73.6378 41.5391C73.7472 41.2786 73.9139 41.026 74.1378 40.7812C74.367 40.5365 74.7238 40.2865 75.2081 40.0312Z" fill="#00BBA7"/>
<path d="M82.3047 31.9091H85.9787L89.8593 41.3764H90.0244L93.9049 31.9091H97.579V46H94.6892V36.8285H94.5723L90.9257 45.9312H88.9579L85.3114 36.7941H85.1944V46H82.3047V31.9091ZM99.5335 46V31.9091H109.028V34.3654H102.513V37.723H108.54V40.1792H102.513V43.5437H109.056V46H99.5335Z" fill="#009689"/>
</svg>
